<svg xmlns="http://www.w3.org/2000/svg" data-name="Layer 12" viewBox="0 0 512 512"><defs><linearGradient id="b" x1="355.75" x2="156.87" y1="370.47" y2="171.59" gradientUnits="userSpaceOnUse"><stop offset="0" stop-color="#ef3739"/><stop offset=".54" stop-color="#ef3739"/><stop offset="1" stop-color="#ff8c8b"/></linearGradient><linearGradient id="c" x1="305.89" x2="206.11" y1="347.44" y2="247.65" gradientUnits="userSpaceOnUse"><stop offset="0" stop-color="#ffd2d2"/><stop offset=".57" stop-color="#fff"/><stop offset="1" stop-color="#fff"/></linearGradient><linearGradient id="d" x1="318.03" x2="181.5" y1="226.5" y2="89.98" gradientUnits="userSpaceOnUse"><stop offset="0" stop-color="#34344f"/><stop offset=".54" stop-color="#353551"/><stop offset="1" stop-color="#666684"/></linearGradient><radialGradient id="a" cx="256" cy="-6459.33" r="200.83" fx="256" fy="-6459.33" gradientTransform="matrix(1 0 0 .45 0 3336.82)" gradientUnits="userSpaceOnUse"><stop offset="0" stop-color="#ef3739" stop-opacity=".6"/><stop offset="1" stop-color="#ef3739" stop-opacity="0"/></radialGradient></defs><path fill="#ffe5e5" d="m496.52,129.85c-13.43-49.48-64.89-100.93-114.37-114.37C351.81,7.92,311.17.13,256,0c-55.17.14-95.81,7.92-126.15,15.49C80.38,28.92,28.92,80.37,15.48,129.85,7.92,160.19.13,200.83,0,256c.14,55.17,7.92,95.81,15.49,126.15,13.44,49.48,64.89,100.93,114.37,114.37,30.34,7.57,70.98,15.35,126.15,15.49,55.16-.14,95.81-7.92,126.15-15.49,49.48-13.44,100.93-64.89,114.37-114.37,7.57-30.33,15.35-70.98,15.49-126.15-.14-55.17-7.92-95.81-15.49-126.15Z"/><path fill="url(#a)" d="m444.68,366.21c-10.54-17.58-50.91-35.87-89.72-40.64-23.8-2.69-55.68-5.46-98.96-5.5-43.28.05-75.17,2.81-98.96,5.5-38.81,4.78-79.18,23.06-89.72,40.64-5.94,10.78-12.04,25.22-12.15,44.83.11,19.6,6.21,34.05,12.15,44.83,10.54,17.58,50.91,35.87,89.72,40.64,23.8,2.69,55.69,5.46,98.96,5.5,43.28-.05,75.16-2.82,98.96-5.5,38.82-4.77,79.18-23.06,89.72-40.64,5.93-10.78,12.04-25.22,12.15-44.83-.11-19.6-6.22-34.05-12.15-44.83Z"/><g><path fill="url(#b)" d="m363.4,255.69c-.14-15.23-3.52-71.21-3.72-73.32-.91-9.75-9.06-17.77-19.15-18.97-16.73-1.97-49.63-2.74-85.39-2.67-.21,0-.42,0-.63,0-1.71,0-3.34,0-4.89.01-33.16.13-62.26.82-77.8,2.65-10.09,1.19-18.24,9.21-19.15,18.97-.18,1.97-3.52,55.26-3.68,70.09-.58,17.12-.22,25.85,1.56,48.76,2.15,26.54,4.84,39.41,8.39,56.77,2.41,11.81,8.92,23.29,18.06,32.31,9.07,9,20.37,15.09,31.96,16.88.12.02.24.04.35.05,14.13,2.05,16.42,3.62,45.95,3.83,29.54-.15,34.34-1.81,48.46-3.88.12-.02.24-.04.35-.05,11.59-1.8,22.86-7.9,31.9-16.9,9.11-9.01,15.56-20.49,17.93-32.29,3.47-17.36,6.06-30.21,8.09-56.74,1.57-21.49,1.89-28.69,1.4-45.51Z"/><path fill="url(#c)" d="m235.98,338.71c-.54,6.63-5.67,11.84-12.19,12.3-3.92.28-3.79.27-5.03.24-1.21-.03-1.11-.01-5.04-.46-6.53-.75-11.82-6.14-12.52-12.74-.45-3.97-1.13-32.71-1.16-40.14-.1-7.43.03-36.17.41-40.13.59-6.58,5.87-11.82,12.51-12.43,3.99-.36,3.98-.35,5.12-.36,1.32,0,1.13-.01,5.12.33,6.64.57,11.91,5.83,12.5,12.47.34,3.99.64,32.97.68,40.46.01,7.49-.09,36.47-.4,40.45Zm74.82-.66c-.71,6.6-5.99,11.99-12.52,12.74-3.93.45-3.8.43-5.04.46-1.21.03-1.11.03-5.03-.24-6.52-.46-11.65-5.66-12.19-12.3-.31-3.99-.42-32.96-.4-40.45.04-7.49.33-36.47.68-40.46.59-6.64,5.85-11.9,12.5-12.47,3.99-.34,3.98-.33,5.12-.33,1.32,0,1.13,0,5.12.36,6.65.61,11.93,5.85,12.51,12.43.38,3.96.51,32.7.41,40.13-.04,7.43-.71,36.17-1.16,40.14Z"/><path fill="url(#d)" d="m380.31,169.06c-.42-3.77-.84-6.79-1.33-10.56-1.51-11.4-11.25-21.34-22.83-23.34-11.03-1.88-29.28-3.91-50.55-5.18-.2-2.56-.41-5.11-.64-7.67-.87-9.57-7.31-17.47-15.15-18.62-25.77-3.62-37.56-3.65-63.32-.14-7.83,1.11-14.25,9-15.1,18.58-.22,2.53-.42,5.06-.62,7.6-23.13,1.26-43.15,3.43-54.93,5.44-11.58,2-21.32,11.93-22.83,23.34-.49,3.77-.91,6.8-1.33,10.56-1.03,9.06,6.12,16.28,15.55,15.85,72.51-3.54,145.02-3.54,217.53,0,9.42.44,16.57-6.78,15.55-15.85Z"/></g></svg>