<svg xmlns="http://www.w3.org/2000/svg" id="Layer_1" x="0" y="0" enable-background="new 0 0 70 70" version="1.1" viewBox="0 0 70 70" xml:space="preserve"><path fill="#fff" d="M54.146,24.912c-2.14-8.57-8.88-15.31-17.44-17.44c-1.87-0.47-3.82-0.72-5.83-0.72
				c-2.01,0-3.95,0.25-5.82,0.72c-8.55,2.13-15.29,8.87-17.44,17.44c-0.46,1.86-0.71,3.82-0.71,5.83c0,2.01,0.25,3.96,0.71,5.82
				c2.14,8.57,8.88,15.31,17.44,17.45c1.87,0.46,3.81,0.71,5.82,0.71c2.01,0,3.96-0.25,5.83-0.71c1.66-0.41,3.24-1,4.74-1.74
				c6.26-3.08,10.97-8.8,12.7-15.71c0.14-0.55,0.25-1.11,0.35-1.68c0.24-1.34,0.36-2.73,0.36-4.14
				C54.856,28.732,54.606,26.772,54.146,24.912z M36.696,45.612c-1.8,0.71-3.76,1.1-5.82,1.1c-2.05,0-4.01-0.39-5.81-1.1
				c-4.14-1.61-7.44-4.91-9.05-9.06c-0.71-1.8-1.1-3.76-1.1-5.81c0-2.05,0.39-4.02,1.1-5.82c1.61-4.14,4.91-7.44,9.05-9.05
				c1.8-0.71,3.76-1.1,5.81-1.1c2.06,0,4.02,0.39,5.82,1.1c4.14,1.62,7.44,4.91,9.05,9.05c0.71,1.8,1.1,3.77,1.1,5.82
				c0,2.05-0.39,4.01-1.1,5.81C44.136,40.692,40.836,43.992,36.696,45.612z"/><path fill="#e6e6ef" d="M36.706 7.472v8.17c0 .08 0 .16-.01.23-1.8-.71-3.76-1.1-5.82-1.1-2.05 0-4.01.39-5.81 1.1-.01-.07-.01-.15-.01-.23v-8.17c1.87-.47 3.81-.72 5.82-.72C32.886 6.752 34.836 7.002 36.706 7.472zM36.706 45.832v8.18c-1.87.46-3.82.71-5.83.71-2.01 0-3.95-.25-5.82-.71v-8.18c0-.07 0-.15.01-.22 1.8.71 3.76 1.1 5.81 1.1 2.06 0 4.02-.39 5.82-1.1C36.706 45.682 36.706 45.762 36.706 45.832zM54.856 30.742c0 2.01-.25 3.96-.71 5.82h-8.17c-.08 0-.15 0-.23-.01.71-1.8 1.1-3.76 1.1-5.81 0-2.05-.39-4.02-1.1-5.82.08-.01.15-.01.23-.01h8.17C54.606 26.772 54.856 28.732 54.856 30.742z"/><path fill="#e6e6ef" d="M54.496 34.882c-.1.57-.21 1.13-.35 1.68-1.73 6.91-6.44 12.63-12.7 15.71-.32-1.17-.5-2.4-.5-3.68C40.946 41.082 47.006 34.972 54.496 34.882zM14.916 30.742c0 2.05.39 4.01 1.1 5.81-.07.01-.15.01-.23.01h-8.17c-.46-1.86-.71-3.81-.71-5.82 0-2.01.25-3.97.71-5.83h8.17c.08 0 .16 0 .23.01C15.306 26.722 14.916 28.692 14.916 30.742z"/><path fill="#5c9efe" d="M38.926,30.739c0,4.444-3.602,8.045-8.045,8.045c-4.44,0-8.042-3.602-8.042-8.045
				c0-4.444,3.602-8.045,8.042-8.045C35.324,22.694,38.926,26.296,38.926,30.739z"/><path fill="#ff564c" d="M33.704 6.04v9.604c0 1.558-1.263 2.822-2.822 2.822h0c-1.558 0-2.822-1.263-2.822-2.822V6.04c0-1.558 1.263-2.822 2.822-2.822h0C32.441 3.218 33.704 4.481 33.704 6.04zM33.704 45.835v9.604c0 1.558-1.263 2.822-2.822 2.822h0c-1.558 0-2.822-1.263-2.822-2.822v-9.604c0-1.558 1.263-2.822 2.822-2.822h0C32.441 43.013 33.704 44.276 33.704 45.835z"/><g><path fill="#ff564c" d="M55.582 33.561h-9.604c-1.558 0-2.822-1.263-2.822-2.822v0c0-1.558 1.263-2.822 2.822-2.822h9.604c1.558 0 2.822 1.263 2.822 2.822v0C58.404 32.298 57.14 33.561 55.582 33.561zM15.787 33.561H6.183c-1.558 0-2.822-1.263-2.822-2.822v0c0-1.558 1.263-2.822 2.822-2.822h9.604c1.558 0 2.822 1.263 2.822 2.822v0C18.609 32.298 17.345 33.561 15.787 33.561z"/></g><g><circle cx="54.66" cy="48.594" r="10.71" fill="#febc00" transform="rotate(-45.001 54.66 48.595)"/><path fill="#fff" d="M54.664,53.998c-1.694,0-3.072-1.378-3.072-3.072c0-0.414,0.336-0.75,0.75-0.75s0.75,0.336,0.75,0.75
					c0,0.867,0.705,1.572,1.572,1.572c0.862,0,1.563-0.705,1.563-1.572c0-0.862-0.701-1.563-1.563-1.563
					c-1.694,0-3.072-1.378-3.072-3.072c0-1.689,1.378-3.063,3.072-3.063c1.689,0,3.063,1.375,3.063,3.063
					c0,0.414-0.336,0.75-0.75,0.75s-0.75-0.336-0.75-0.75c0-0.862-0.701-1.563-1.563-1.563c-0.867,0-1.572,0.701-1.572,1.563
					c0,0.867,0.705,1.572,1.572,1.572c1.689,0,3.063,1.375,3.063,3.063C57.728,52.62,56.353,53.998,54.664,53.998z"/><path fill="#fff" d="M54.66,44.727c-0.414,0-0.75-0.336-0.75-0.75V42.65c0-0.414,0.336-0.75,0.75-0.75s0.75,0.336,0.75,0.75
					v1.327C55.41,44.391,55.074,44.727,54.66,44.727z"/><path fill="#fff" d="M54.66 44.727c-.414 0-.75-.336-.75-.75V42.65c0-.414.336-.75.75-.75s.75.336.75.75v1.327C55.41 44.391 55.074 44.727 54.66 44.727zM54.68 55.429c-.404 0-.737-.321-.749-.728l-.042-1.431c-.012-.414.313-.759.728-.771.418-.021.76.314.771.728l.042 1.431c.012.414-.313.759-.728.771C54.696 55.429 54.688 55.429 54.68 55.429zM66.639 59.843v6.399c0 .298-.241.539-.539.539H43.22c-.298 0-.539-.241-.539-.539v-6.399c0-.298.241-.539.539-.539H66.1C66.397 59.304 66.639 59.546 66.639 59.843z"/><path fill="#525987" d="M66.1,58.554h-5.793c3.466-1.973,5.814-5.695,5.814-9.96c0-6.296-5.104-11.419-11.391-11.456
			c0.25-0.923,0.452-1.864,0.593-2.827h0.259c1.969,0,3.572-1.603,3.572-3.572s-1.603-3.572-3.572-3.572h-0.257
			C53.756,16.39,45.225,7.874,34.454,6.3V6.04c0-1.969-1.603-3.572-3.572-3.572c-1.969,0-3.572,1.603-3.572,3.572v0.26
			C16.539,7.869,8.007,16.387,6.438,27.167H6.183c-1.97,0-3.572,1.603-3.572,3.572s1.602,3.572,3.572,3.572h0.255
			c1.567,10.778,10.1,19.295,20.872,20.864v0.263c0,1.97,1.603,3.572,3.572,3.572c1.969,0,3.572-1.603,3.572-3.572v-0.255
			c3.339-0.489,6.456-1.65,9.222-3.337c0.849,2.864,2.789,5.258,5.337,6.709H43.22c-0.711,0-1.289,0.578-1.289,1.289v6.399
			c0,0.711,0.578,1.289,1.289,1.289H66.1c0.711,0,1.289-0.578,1.289-1.289v-6.399C67.389,59.133,66.811,58.554,66.1,58.554z
			 M53.91,60.054v5.978h-4.839v-5.978H53.91z M55.41,60.054h4.839v5.978H55.41V60.054z M57.654,30.739
			c0,1.143-0.929,2.072-2.072,2.072h-9.604c-1.143,0-2.072-0.929-2.072-2.072s0.929-2.072,2.072-2.072h9.604
			C56.724,28.667,57.654,29.596,57.654,30.739z M53.81,27.167h-6.621c-1.391-6.348-6.388-11.348-12.734-12.741V7.819
			C44.397,9.369,52.265,17.219,53.81,27.167z M28.81,6.04c0-1.143,0.93-2.072,2.072-2.072s2.072,0.929,2.072,2.072v9.604
			c0,1.143-0.93,2.072-2.072,2.072s-2.072-0.929-2.072-2.072V6.04z M27.31,7.817v6.602c-6.348,1.389-11.345,6.396-12.736,12.748
			H7.953C9.498,17.216,17.368,9.363,27.31,7.817z M4.111,30.739c0-1.143,0.929-2.072,2.072-2.072h9.604
			c1.143,0,2.072,0.929,2.072,2.072s-0.929,2.072-2.072,2.072H6.183C5.04,32.811,4.111,31.882,4.111,30.739z M7.954,34.311h6.622
			c1.389,6.355,6.386,11.365,12.735,12.755v6.592C17.366,52.112,9.497,44.26,7.954,34.311z M32.954,55.438
			c0,1.143-0.93,2.072-2.072,2.072s-2.072-0.93-2.072-2.072v-9.604c0-1.143,0.93-2.072,2.072-2.072s2.072,0.93,2.072,2.072V55.438z
			 M30.882,42.262c-1.863,0-3.381,1.44-3.541,3.263c-5.548-1.329-9.921-5.694-11.248-11.246c1.824-0.158,3.265-1.676,3.265-3.541
			c0-1.864-1.44-3.381-3.263-3.541c1.329-5.549,5.701-9.911,11.247-11.24c0.162,1.82,1.679,3.257,3.54,3.257
			c1.862,0,3.379-1.438,3.54-3.259c5.546,1.331,9.915,5.696,11.244,11.242c-1.822,0.16-3.261,1.677-3.261,3.54
			c0,1.864,1.44,3.381,3.263,3.541c-1.328,5.549-5.698,9.917-11.246,11.248C34.265,43.704,32.747,42.262,30.882,42.262z
			 M34.454,53.664v-6.606c6.347-1.393,11.343-6.396,12.732-12.747h6.629c-0.158,1.001-0.378,1.981-0.661,2.934
			c-5.608,0.741-9.955,5.542-9.955,11.349c0,0.574,0.056,1.133,0.138,1.685C40.693,51.979,37.689,53.159,34.454,53.664z
			 M44.7,48.594c0-5.492,4.468-9.96,9.96-9.96c5.492,0,9.96,4.468,9.96,9.96c0,5.492-4.468,9.96-9.96,9.96
			C49.168,58.554,44.7,54.086,44.7,48.594z M43.431,60.054h4.14v5.978h-4.14V60.054z M65.889,66.032h-4.14v-5.978h4.14V66.032z"/></g></svg>