<svg xmlns="http://www.w3.org/2000/svg" id="Layer_1" viewBox="0 0 512 512">
  <path d="M497.432,237.053v51.7c0,38.023-90.1,68.847-201.24,68.847s-201.24-30.824-201.24-68.847v-51.7Z" style="fill:#ffbe40"/>
  <path d="M497.432,182.78v51.7c0,38.024-90.1,68.848-201.24,68.848S94.952,272.5,94.952,234.48v-51.7Z" style="fill:#ffdf40"/>
  <path d="M497.432,128.506v51.7c0,38.024-90.1,68.848-201.24,68.848s-201.24-30.824-201.24-68.848v-51.7Z" style="fill:#ffbe40"/>
  <path d="M497.432,128.506c0,38.024-90.1,68.848-201.24,68.848S94.952,166.53,94.952,128.506s90.1-68.847,201.24-68.847S497.432,90.483,497.432,128.506Z" style="fill:#fca338"/>
  <path d="M459.634,128.506c-15.54,12.536-71.366,34-163.443,34s-147.9-21.469-163.441-34c15.54-12.535,71.366-34,163.441-34S444.094,115.971,459.634,128.506Z" style="fill:#ffdf40"/>
  <path d="M266.421,53.114l-136.072,422.1L70.293,447.634c-29.17-20.147-49.7-60.178-54.607-115.2C5.923,223.03,61.582,95.786,140,48.223c25.913-15.716,49.705-21.318,72.127-17.088Z" style="fill:#ffbe40"/>
  <path d="M221.864,464.331c-78.423,47.563-149.911-2.566-159.675-111.966s45.9-236.644,124.319-284.207,149.911,2.566,159.674,111.966S300.286,416.768,221.864,464.331Z" style="fill:#fca338"/>
  <path d="M212.505,427.017c-56.081,42.74-104.368,5.984-107.852-82.1s39.155-194.132,95.236-236.872,104.368-5.984,107.852,82.1S268.586,384.277,212.505,427.017Z" style="fill:#ffdf40"/>
  <path d="M267.886,272.649c0,29.076-20.254,64.657-45.4,80.155v25.563c0,16.115-23.506,29.872-23.506,13.757V366.6l-36,21.07c-15.67,9.172-15.67-17.831,0-27l58.233-34.083c12.775-7.477,23.168-25.5,23.168-40.176s-10.393-20.533-23.168-13.056l-20.961,12.268c-25.736,15.063-46.674,3.264-46.674-26.3,0-29.075,20.253-64.656,45.4-80.154V161.831c0-16.292,23.506-30.049,23.506-13.757v17.294l22.828-13.362c15.454-9.044,15.454,17.959,0,27l-45.061,26.374c-12.776,7.477-23.169,25.5-23.169,40.176s10.393,20.534,23.169,13.056l20.961-12.268C246.948,231.284,267.886,243.083,267.886,272.649Z" style="fill:#fca338"/>
  <path d="M254.867,241.373c-10.138-5.814-23.329-4.563-37.14,3.522l-20.961,12.268c-4.855,2.842-9.387,3.47-12.436,1.722s-4.713-5.765-4.713-11.326c0-13.184,9.705-30,21.19-36.724l45.061-26.374c9.387-5.494,13.615-16.222,13.57-23.864-.032-5.209-1.99-9.3-5.372-11.228-2.362-1.345-6.4-2.229-12.239,1.185l-16.808,9.838V150.074a12.342,12.342,0,0,0-2.526-8.169,9.034,9.034,0,0,0-7.067-3.142c-9.567,0-21.912,12.156-21.912,25.068V178.97c-25.609,16.893-45.4,52.571-45.4,82.346,0,15.707,5.523,27.525,15.553,33.276,10.138,5.812,23.328,4.56,37.141-3.522L221.768,278.8c4.853-2.84,9.385-3.471,12.435-1.721s4.713,5.765,4.713,11.325c0,13.185-9.7,30-21.189,36.724l-58.233,34.083a28.257,28.257,0,0,0-12.207,15.262c-2.149,6.2-2.025,12.306.332,16.334,2.452,4.185,7.92,6.993,15.916,2.311l29.979-17.546v18.55a12.175,12.175,0,0,0,2.519,8.092,9.014,9.014,0,0,0,7.027,3.1c9.588,0,21.959-12.1,21.959-24.953V357c25.609-16.894,45.4-52.571,45.4-82.348C270.421,258.941,264.9,247.124,254.867,241.373ZM218.92,351.4a4,4,0,0,0-1.9,3.406v25.563c0,8.933-9.482,16.953-13.959,16.953-.578,0-1.546,0-1.546-3.2V368.6a4,4,0,0,0-6.021-3.453l-36,21.07c-2.354,1.38-3.843,1.5-4.405,1.176-.629-.358-1.311-1.846-1.326-4.267a20.792,20.792,0,0,1,9.772-17.008l58.233-34.083c14.1-8.253,25.148-27.417,25.148-43.628,0-8.55-3.1-15.036-8.733-18.265-5.687-3.261-12.95-2.636-20.456,1.756l-20.961,12.269c-11.235,6.574-21.576,7.813-29.12,3.485-7.438-4.264-11.533-13.617-11.533-26.335,0-27.538,19.513-61.967,43.5-76.749a4,4,0,0,0,1.9-3.405V163.831c0-9.168,9.331-17.068,13.912-17.068.7,0,.873.206.946.294.152.179.647.929.647,3.017v17.293a4,4,0,0,0,6.02,3.452l22.829-13.361c2.235-1.308,3.436-1.319,3.844-1.262.21.029.562.077.953.745.92,1.572,1.223,5.278-.285,9.7a20.21,20.21,0,0,1-8.553,10.915l-45.061,26.374c-14.1,8.253-25.149,27.418-25.149,43.628,0,8.549,3.1,15.037,8.734,18.266,5.685,3.258,12.949,2.635,20.456-1.758L221.768,251.8c11.233-6.574,21.575-7.814,29.12-3.487,7.437,4.265,11.533,13.618,11.533,26.335C262.421,302.187,242.906,336.617,218.92,351.4ZM266.354,91c-20.21-9.512-44.673-4.589-68.89,13.867-27.688,21.1-52.988,57.725-71.241,103.123-18.193,45.251-27.274,93.937-25.567,137.088,1.989,50.264,18.531,86.343,45.384,98.986a49.878,49.878,0,0,0,21.434,4.735c15.037,0,31.3-6.291,47.456-18.6,27.687-21.1,52.988-57.724,71.241-103.123,18.193-45.251,27.274-93.936,25.567-137.088C309.748,139.728,293.206,103.643,266.354,91ZM210.08,423.835c-22.041,16.8-43.007,21.29-60.632,12.992-24.061-11.329-38.932-44.885-40.8-92.064-3.434-86.793,38.583-191.555,93.663-233.532,14.847-11.315,29.2-17.047,42.383-17.047a42.412,42.412,0,0,1,18.249,4.055c24.061,11.329,38.932,44.885,40.8,92.065C307.177,277.1,265.16,381.858,210.08,423.835ZM501.432,128.507c0-40.85-90.152-72.849-205.24-72.849-4.014,0-8.071.046-12.083.126-.246-.127-.487-.267-.734-.392a84.552,84.552,0,0,0-15.5-6L213.632,27.427a4.016,4.016,0,0,0-.76-.223c-23.575-4.449-48.087,1.311-74.942,17.6C99.3,68.23,64.918,111.106,41.111,165.534,17.365,219.819,6.921,279.217,11.7,332.785,16.562,387.242,36.563,429.2,68.02,450.926a3.913,3.913,0,0,0,.6.343l60.056,27.582,0-.008a85.211,85.211,0,0,0,35.054,7.4c19.43,0,39.938-6.207,60.2-18.5,35.174-21.333,66.826-58.8,90.181-106.421,49.934-1.5,96.27-9.251,130.715-21.9,36.5-13.4,56.6-31.4,56.6-50.678ZM327.179,99.357c64.346,3.617,107.839,18.228,125.458,29.132-14.1,8.627-48.629,22.211-105.691,27.674C342.934,134.543,336.227,115.387,327.179,99.357Zm24.034,99.41c41.21-3.975,78.412-12.521,105.092-24.173,17.233-7.527,29.714-16.091,37.127-25.348v30.961c0,28.572-60.384,54.552-144.3,62.421A320.342,320.342,0,0,0,351.213,198.767ZM437.2,83.608c35.74,12.227,56.237,28.592,56.237,44.9,0,28.242-59.677,54.192-142.508,62.251q-.278-5.531-.758-10.99-.717-8.032-1.886-15.7c65.9-6.38,102.511-23.29,113.866-32.451a4,4,0,0,0,0-6.227C449.384,115.1,403.773,94.817,322.135,91.1A109.074,109.074,0,0,0,296.683,63.66C349.823,63.7,399.708,70.783,437.2,83.608ZM19.67,332.074C10.044,224.219,64.956,98.418,142.078,51.642,167.023,36.514,189.572,31.067,211,34.993l28.191,11.414c-17.8,1.044-36.379,7.183-54.76,18.331-38.627,23.427-73.012,66.3-96.82,120.732C63.868,239.754,53.425,299.152,58.205,352.721c3.889,43.573,17.686,79.325,39.027,102.884L72.283,444.147C42.982,423.735,24.3,383.952,19.67,332.074ZM219.789,460.911c-30.914,18.751-62.2,22.377-88.472,10.349,0,0-1.923-.9-2.71-1.3C94.06,452.483,71.3,409.492,66.174,352.01,56.548,244.153,111.46,118.351,188.582,71.578c18.961-11.5,38.062-17.311,56.06-17.311a77.121,77.121,0,0,1,35.122,8.264C314.312,80.007,337.068,123,342.2,180.479,351.823,288.336,296.911,414.138,219.789,460.911ZM493.432,288.754c0,15.45-18.718,31.184-51.355,43.168-32.72,12.014-76.577,19.512-124.1,21.273q1.408-3.065,2.777-6.176A372.917,372.917,0,0,0,335.9,306c44.977-3.061,86.031-11.382,115.861-23.511,19.609-7.974,33.63-17.181,41.676-27.226Zm0-54.274c0,29.918-66.306,56.8-155.16,63.327a360.851,360.851,0,0,0,9.827-47.05c42.038-3.806,80.074-12.334,107.39-24.11,17.655-7.609,30.414-16.291,37.943-25.691Z"/>
</svg>
