<svg xmlns="http://www.w3.org/2000/svg" id="Layer_1" x="0" y="0" enable-background="new 0 0 68 68" version="1.1" viewBox="0 0 68 68" xml:space="preserve"><path fill="#fff" d="M55.3404121,20.8958225l-0.0863342,32.4244003
				c-0.0088806,3.1376877-2.0711212,6.2703362-6.1885109,8.6638489c-8.2926216,4.8206596-21.7730541,4.8244057-30.1200962,0.003727
				c-4.1986446-2.4248466-6.2947969-5.6063194-6.2857933-8.783226l0.086319-32.4243889
				c-0.0090017,3.1769028,2.0871506,6.3583736,6.2857952,8.7832222c8.3470421,4.8206787,21.8274765,4.8169289,30.1200981-0.003727
				C53.2692795,27.1661644,55.3315201,24.0335197,55.3404121,20.8958225z"/><path fill="#e9edf4" d="M54.044014,57.3967743c-1.022316,1.681469-2.6736221,3.2545509-4.9738312,4.5918999
				c-8.2961197,4.8179131-21.7822914,4.8179131-30.1276054,0c-4.1972542-2.4286423-6.2908421-5.6045761-6.2812433-8.780632
				l0.0885534-32.4084549c0,3.0087357,1.8773651,6.0175934,5.6323376,8.3676167
				c-1.0712719,2.6056824-1.6513042,5.4373779-1.6513042,8.3970222c0,12.8316879,10.9795761,23.2445793,24.5247822,23.2445793
				C45.9444389,60.8088036,50.3185577,59.5600319,54.044014,57.3967743z"/><path d="M34.0200272,65.9890137c-5.5253887,0-11.055685-1.2182617-15.2744122-3.6547852
						c-4.1923838-2.4208984-6.4951181-5.6640625-6.4863291-9.1308594l0.0859375-32.4243164l0,0
						c0.0009766-0.2207031,0.1796875-0.3989258,0.4003906-0.3989258h0.0009766
						c0.2207031,0.0004883,0.3994141,0.1801758,0.3994141,0.4008789l0,0
						c-0.0087891,3.1679688,2.1523438,6.1640625,6.0859385,8.4360352c8.21875,4.7460938,21.5507793,4.7446289,29.7187481-0.0029297
						c3.8535156-2.2402344,5.9804688-5.1948242,5.9892578-8.3193359c0.0009766-0.2207031,0.1796875-0.3989258,0.4003906-0.3989258
						h0.0009766c0.2207031,0.0004883,0.3994141,0.1801758,0.3994141,0.4008789l-0.0859375,32.4243164
						c-0.0097656,3.4204102-2.2783203,6.6196289-6.3876953,9.0087891
						C45.071785,64.7687988,39.5483475,65.9890137,34.0200272,65.9890137z M13.1362391,24.2458496l-0.0761719,28.9594727
						c-0.0087891,3.168457,2.1523438,6.1645508,6.0859385,8.4365234c8.21875,4.7460938,21.5498028,4.7436523,29.7187481-0.003418
						c3.8535156-2.2402344,5.9804688-5.1948242,5.9892578-8.3193359L54.93116,24.354248
						c-0.9970703,2.0864258-2.8955078,3.9916992-5.578125,5.5512695c-8.390625,4.8764648-22.0820293,4.8793945-30.5214825,0.0039063
						C16.0786228,28.3195801,14.1401453,26.3752441,13.1362391,24.2458496z"/><path fill="#fff" d="M49.053669,12.1111288c8.3470383,4.8206797,8.3846703,12.631484,0.0982208,17.4485512
						c-8.2926216,4.8206558-21.773056,4.8244057-30.1200981,0.003727
						c-8.3468714-4.8205795-8.3844576-12.6314087-0.091835-17.4520664
						C27.2264042,7.2942734,40.7067947,7.2905488,49.053669,12.1111288z"/><path fill="#e9edf4" d="M49.1488953,29.5605335c-8.2862778,4.817915-21.7724495,4.8277569-30.1177635,0
						c-6.3793964-3.687254-7.9030313-9.1149693-4.5610657-13.6182919
						c0.8848066,7.7088432,9.3873081,13.7656841,19.7477379,13.7656841c10.1439667,0,18.4991188-5.8011818,19.6788597-13.2838917
						C56.8455429,20.829052,55.2628746,26.0108318,49.1488953,29.5605335z"/><path d="M34.1059647,33.564209c-5.5253887,0-11.0556622-1.2177734-15.2744122-3.6547852
						c-4.1777353-2.4125977-6.4804697-5.6435547-6.4853525-9.0981445c-0.0048828-3.434082,2.265625-6.6464844,6.3925791-9.0454102
						c8.3847656-4.875,22.0732403-4.8759766,30.5146465-0.0009766c4.1777344,2.4125977,6.4814453,5.6445313,6.4873047,9.0996094
						c0.0048828,3.4326172-2.2636719,6.6435547-6.3876953,9.0410156
						C45.1567459,32.3444824,39.634285,33.564209,34.1059647,33.564209z M33.9760818,8.8977051
						c-5.3798809,0-10.7529278,1.1865234-14.834959,3.5595703c-3.8701181,2.25-6.000001,5.2163086-5.9951181,8.3525391
						c0.0039063,3.1577148,2.1660156,6.1430664,6.0859385,8.4072266c8.21875,4.7460938,21.5507793,4.7446289,29.7187481-0.0029297
						c3.8671875-2.2480469,5.9941406-5.2128906,5.9892578-8.3486328c-0.0039063-3.1577148-2.1660156-6.1435547-6.0869141-8.4082031
						C44.74366,10.0842285,39.3569412,8.8977051,33.9760818,8.8977051z"/><g><path fill="#ffd63c" d="M48.5210533,10.8551979l0.0000191,5.3577309
						c-0.0060539,2.1393604-1.4121475,4.2752819-4.2194939,5.9072437
						c-5.654129,3.2868538-14.8454514,3.2894096-20.5366879,0.0025425
						c-2.8627472-1.6533279-4.2919617-3.8225384-4.2858219-5.9886417l-0.0000305-5.3577194
						c-0.0061378,2.1660976,1.4230747,4.335309,4.2858238,5.988636c5.6912365,3.2868671,14.8825569,3.2843113,20.5366898-0.0025425
						C47.1088982,15.1304855,48.5149879,12.9945641,48.5210533,10.8551979z"/><path d="M34.0434647,24.9758301c-3.7910137,0-7.5839825-0.8354492-10.4785137-2.5068359
						c-2.8994141-1.6738281-4.4921875-3.9243164-4.4863281-6.3359375v-5.3286133c0-0.0097656,0-0.0195313,0-0.0292969
						c0.0009766-0.2207031,0.1796875-0.3989258,0.4003906-0.3989258c0,0,0,0,0.0009766,0
						c0.2207031,0,0.3994141,0.1791992,0.3994141,0.3999023v0.0288086c0.0068359,2.1030273,1.4570313,4.0952148,4.0859375,5.6137695
						c5.5673828,3.2158203,14.600584,3.2158203,20.1347637-0.0019531c2.5869141-1.5039063,4.015625-3.4794922,4.0205078-5.5625
						c0.0009766-0.2207031,0.1796875-0.3989258,0.4003906-0.3989258c0,0,0,0,0.0009766,0
						c0.2207031,0,0.3994141,0.1791992,0.3994141,0.3999023v5.3579102
						c-0.0068359,2.3798828-1.5761719,4.6000977-4.4189453,6.2529297
						C41.6245193,24.138916,37.8354568,24.9758301,34.0434647,24.9758301z M19.8794041,13.6691895v2.4648438
						c-0.0058594,2.1142578,1.4453125,4.1176758,4.0859375,5.6425781c5.5673828,3.2158203,14.600584,3.2148438,20.1347637-0.0019531
						c2.5869141-1.5043945,4.015625-3.4794922,4.0205078-5.5625v-2.4960938
						c-0.7333984,1.2700195-1.9589844,2.4277344-3.6181641,3.3920898c-5.7568359,3.3452148-15.147459,3.347168-20.9374981,0.0029297
						C21.870615,16.1330566,20.6225681,14.958252,19.8794041,13.6691895z"/><g><path fill="#fff" d="M44.234581,4.8655581c5.6912346,3.2868676,5.7168922,8.612484,0.0669708,11.8968887
						c-5.6541328,3.2868538-14.8454533,3.2894096-20.5366898,0.0025425
						c-5.6911201-3.2868004-5.7167473-8.6124334-0.0626163-11.8992863
						C29.352169,1.5812973,38.5434608,1.5787578,44.234581,4.8655581z"/><path d="M34.0424881,19.6184082c-3.7900372,0-7.5830059-0.8354492-10.4775372-2.5073242
						c-2.8886719-1.668457-4.4824219-3.9101563-4.4853516-6.3129883c-0.0039063-2.3886719,1.5664063-4.6186523,4.421875-6.2783203
						c5.7519531-3.3457031,15.1425762-3.3442383,20.9335918-0.0004883l0,0
						c2.8896484,1.6689453,4.4833984,3.9116211,4.4863281,6.3144531c0.0029297,2.3881836-1.5664063,4.6162109-4.4189453,6.2744141
						C41.6235428,18.7814941,37.8344803,19.6184082,34.0424881,19.6184082z M33.9545975,2.7995605
						c-3.6455059,0-7.2851543,0.8037109-10.0507793,2.4116211c-2.5986328,1.5107422-4.0273438,3.4941406-4.0244141,5.5859375
						c0.0029297,2.1049805,1.4541016,4.1015625,4.0859375,5.621582c5.5673828,3.2158203,14.600584,3.2158203,20.1347637-0.0019531
						c2.5957031-1.5087891,4.0244141-3.4912109,4.0214844-5.581543c-0.0029297-2.105957-1.4541016-4.1030273-4.0869141-5.6235352
						l0,0C41.2504959,3.6037598,37.6001053,2.7995605,33.9545975,2.7995605z"/></g></g><g><path fill="#ffd63c" d="M37.8745613,8.5627956c2.1545448,1.244318,2.164257,3.2604504,0.0253525,4.5038366
				c-2.1404991,1.2443123-5.6200829,1.2452793-7.7746277,0.0009613c-2.1545029-1.2442923-2.1642036-3.2604303-0.0237045-4.5047436
				C32.2404861,7.3194642,35.7200584,7.3185029,37.8745613,8.5627956z"/><path d="M34.0161209,14.3928223c-1.4794922,0-2.9609356-0.3261719-4.0908184-0.9790039
				c-1.1738281-0.6777344-1.8203125-1.6025391-1.8222656-2.6044922c-0.0009766-0.996582,0.6367188-1.9174805,1.7978516-2.5922852
				c2.2460918-1.3076172,5.9140606-1.3061523,8.1738262-0.0004883c1.1738281,0.6777344,1.8212891,1.6030273,1.8222656,2.6054688
				c0.0019531,0.9960938-0.6367188,1.9165039-1.7958984,2.590332
				C36.9770584,14.0656738,35.4965897,14.3928223,34.0161209,14.3928223z M33.9829178,8.0256348
				c-1.3349609,0-2.6669903,0.2944336-3.6796856,0.8828125c-0.9042969,0.5253906-1.4013672,1.2001953-1.4003906,1.8994141
				c0.0009766,0.7045898,0.5068359,1.3842773,1.4228516,1.9135742c2.0400372,1.1772461,5.3466778,1.1767578,7.373045-0.0004883
				c0.9023438-0.5249023,1.3994141-1.1987305,1.3984375-1.8979492c-0.0009766-0.7050781-0.5058594-1.3847656-1.4228516-1.9140625
				C36.6547928,8.3200684,35.3178787,8.0256348,33.9829178,8.0256348z"/></g><g><path fill="#ffd63c" d="M41.8900795,49.4701385l-0.011734,4.139782
								c-0.0048943,1.7272453-1.1409683,3.4516678-3.4087677,4.7699814
								c-4.5636787,2.6529541-11.9807434,2.6557159-16.578928,0.0001221
								c-2.3115368-1.3349838-3.466013-3.0871429-3.4610538-4.8366241l0.0117302-4.1397781
								c-0.0049553,1.7494774,1.149519,3.5016365,3.4610558,4.8366203
								c4.5981846,2.6555977,12.0152473,2.652832,16.5789299-0.0001221
								C40.7491112,52.9218063,41.8851852,51.1973839,41.8900795,49.4701385z"/><path d="M30.1909275,60.760498c-3.0742188,0-6.1513672-0.6777344-8.5-2.0341797
								c-2.3671875-1.3666992-3.6669922-3.2080078-3.6621094-5.184082l0.0117188-4.1396484
								c0.0009766-0.2207031,0.1796875-0.3989258,0.4003906-0.3989258h0.0009766
								c0.2207031,0.0004883,0.3994141,0.1801758,0.3994141,0.4008789l0,0
								c-0.0048828,1.6772461,1.1533203,3.2714844,3.2617188,4.4897461c4.4755859,2.5844727,11.73242,2.5834961,16.1767559,0
								c2.0654297-1.2006836,3.2060547-2.7719727,3.2099609-4.425293c0.0009766-0.2207031,0.1796875-0.3989258,0.4003906-0.3989258
								h0.0009766c0.2207031,0.0004883,0.3994141,0.1801758,0.3994141,0.4008789l-0.0117188,4.1401367
								c-0.0058594,1.9492188-1.2871094,3.7661133-3.6083984,5.1147461
								C36.33741,60.0822754,33.2661209,60.760498,30.1909275,60.760498z M18.8335056,52.0021973l-0.0039063,1.5419922
								c-0.0048828,1.6777344,1.1533203,3.2719727,3.2617188,4.4897461
								c4.4746094,2.5839844,11.7314434,2.5854492,16.1767559,0.0004883
								c2.0654297-1.2006836,3.2060547-2.7719727,3.2099609-4.425293l0.0048828-1.5449219
								c-0.6103516,0.9404297-1.5566406,1.7983398-2.8007813,2.5214844
								c-4.6650391,2.7138672-12.2832012,2.7138672-16.9794903,0.0009766
								C20.4213963,53.8464355,19.4516697,52.9665527,18.8335056,52.0021973z"/><path fill="#fff" d="M38.4273529,44.6339684c4.5981865,2.6555939,4.6176567,6.9531898,0.0539589,9.6061516
								c-4.5636826,2.6529541-11.9807453,2.6557198-16.5789299,0.0001221
								c-4.5935364-2.6529121-4.6177807-6.9532623-0.0540981-9.6062164
								C26.4119816,41.9810638,33.8338165,41.9810562,38.4273529,44.6339684z"/><path fill="#e9edf4" d="M38.4834938,54.2392387c-4.5694542,2.6525536-11.9800777,2.660408-16.5809364,0
								c-3.2989616-1.9025307-4.2380543-4.6655693-2.8174706-7.0496902c0.615593,3.915638,5.3349476,6.9549599,11.0723896,6.9549599
								c5.7295437,0,10.4488964-3.0314217,11.0802898-6.9391556C42.6739578,49.5894737,41.7506638,52.3367081,38.4834938,54.2392387
								z"/><g><path d="M30.2026463,56.6208496c-3.0742188,0-6.1523438-0.6782227-8.5-2.0341797
								c-2.3583984-1.3618164-3.6582031-3.1967773-3.6611328-5.1660156
								c-0.0029297-1.956543,1.2773438-3.7792969,3.6054688-5.1323242
								c4.6669922-2.7133789,12.2841778-2.7128906,16.9804668-0.0004883l0,0
								c2.359375,1.3623047,3.6601563,3.1967773,3.6630859,5.1650391c0.0029297,1.9560547-1.2792969,3.7788086-3.6083984,5.1328125
								C36.3491287,55.942627,33.2778397,56.6208496,30.2026463,56.6208496z M30.1264744,43.041748
								c-2.9296875,0-5.8544922,0.6459961-8.0771484,1.9379883c-2.0712891,1.2041016-3.2099838,2.7807617-3.2080078,4.4399414
								c0.0029297,1.671875,1.1611328,3.2612305,3.2617188,4.4746094c4.4755859,2.5844727,11.73242,2.5834961,16.1767559,0
								c2.0722656-1.2045898,3.2128906-2.7817383,3.2109375-4.4404297
								c-0.0029297-1.6708984-1.1611328-3.2597656-3.2636719-4.4736328
								C35.9897537,43.6882324,33.0551834,43.041748,30.1264744,43.041748z"/></g><g><path fill="#fff" d="M35.3455887,46.4258194c2.8829651,1.6650009,2.8951759,4.3595047,0.0338287,6.0228577
					c-2.8613319,1.6633492-7.5116787,1.665081-10.3946457,0.0000763c-2.8800526-1.6633186-2.8952541-4.3595505-0.0339203-6.0228996
					C27.8121967,44.7625008,32.4655342,44.7624969,35.3455887,46.4258194z"/><path d="M30.1889744,54.0881348c-1.9550781,0-3.9111328-0.4306641-5.4042969-1.2929688
					c-1.5263672-0.8818359-2.3681641-2.078125-2.3701172-3.3681641c-0.0019531-1.2822266,0.828125-2.4707031,2.3349609-3.3466797
					c2.9667969-1.7255859,7.8095684-1.7250977,10.7958965-0.0004883c1.5273438,0.8818359,2.3691406,2.0776367,2.3710938,3.3671875
					c0.0019531,1.2817383-0.8271713,2.4707031-2.3359375,3.347168
					C34.0971756,53.6569824,32.1440506,54.0881348,30.1889744,54.0881348z M30.1411228,45.5744629
					c-1.8095703,0-3.6162109,0.3994141-4.9892578,1.1972656c-1.2509766,0.7270508-1.9384766,1.6694336-1.9375229,2.6542969
					c0.001976,0.9926758,0.7011948,1.9433594,1.970726,2.6767578c2.7636719,1.5957031,7.2470684,1.5957031,9.9931622,0
					c1.2519531-0.7275391,1.9404297-1.6704102,1.9384766-2.6547852c-0.0009766-0.9921875-0.7011719-1.9423828-1.9716797-2.6757813
					l0,0C33.7631912,45.973877,31.9506931,45.5744629,30.1411228,45.5744629z"/></g><g><path d="M30.1731396,51.0737419c0.0424404-0.0245094,0.0930252-0.0426903,0.1476631-0.055336
						c0.4999256-0.1106529,0.9469452-0.271122,1.3437977-0.4814072l-1.4645329-0.8513603
						c-0.3663483,0.123333-0.6942787,0.2165947-0.9824848,0.2790375c-0.2868786,0.0632515-0.5789375,0.0853729-0.8748913,0.0671921
						c-0.2959518-0.018177-0.5696888-0.1011925-0.8198891-0.2466393c-0.220295-0.1280632-0.3695469-0.278244-0.4490814-0.4497719
						c-0.0767651-0.1715584-0.0689373-0.3557205,0.0235786-0.5509796c0.0925331-0.1968422,0.2777977-0.3905067,0.555809-0.5794334
						l-0.4460201-0.2592812c-0.0557556-0.0324097-0.0828342-0.0703506-0.0853386-0.1130257
						c-0.0010948-0.0434952,0.0250149-0.0806351,0.0811195-0.1130371c0.0547657-0.0316277,0.1216984-0.0482254,0.1980915-0.0482178
						c0.0764294-0.0000191,0.1418228,0.0157928,0.1975784,0.0482063l0.4392204,0.2553291
						c0.4364948-0.2316055,0.8781395-0.4062958,1.3262806-0.5217094c0.1612263-0.0442657,0.3057556-0.0300369,0.4335785,0.0442696
						c0.0679932,0.0395241,0.1059074,0.0885429,0.1151371,0.1478195c0.0064964,0.0592842-0.0265446,0.1114578-0.103178,0.1557159
						c-0.0260277,0.0150337-0.0697803,0.0292664-0.1285019,0.0442696c-0.3935184,0.1090851-0.7613297,0.2553215-1.1089001,0.4403
						l1.5162048,0.8813972c0.3800182-0.135952,0.7134857-0.2371407,1.0017433-0.3059158
						c0.2882099-0.067173,0.584425-0.0916977,0.8885422-0.0735016c0.305479,0.0189781,0.5955906,0.1082878,0.8716373,0.2687607
						c0.224369,0.1304283,0.3667488,0.2845764,0.4271431,0.4608574c0.0631332,0.176281,0.0334396,0.3604698-0.0822563,0.5533562
						c-0.1156616,0.1928635-0.3131981,0.3794365-0.5911293,0.558857l0.4528236,0.2632332
						c0.0543976,0.03162,0.0828056,0.0687904,0.0812225,0.1106796c0.0011406,0.0418854-0.0304527,0.080616-0.0893364,0.114624
						c-0.0561066,0.032402-0.1175728,0.0489883-0.188549,0.0505867c-0.0695648,0.0007782-0.1349602-0.0150337-0.1947899-0.0498161
						l-0.4528198-0.2632332c-0.4912071,0.2490196-1.0216141,0.4403114-1.593998,0.5739021
						c-0.071043,0.0173874-0.1501713,0.0221214-0.2319889,0.0126381c-0.0845547-0.0078926-0.1526432-0.0284576-0.208395-0.0608673
						c-0.0720673-0.041893-0.1099682-0.092495-0.1137352-0.1517792C30.0607319,51.1701736,30.0965061,51.118,30.1731396,51.0737419z
						 M32.0560493,50.3109245c0.5600815-0.3723145,0.6191444-0.686924,0.1772003-0.9438362
						c-0.1645355-0.0956459-0.3690186-0.1272583-0.6120224-0.0924988c-0.2430382,0.0347824-0.5531902,0.1146278-0.9345207,0.2403069
						L32.0560493,50.3109245 M28.1997585,48.5228233c-0.2219696,0.1675911-0.3497829,0.3312302-0.3820305,0.4901009
						c-0.0336533,0.1596832,0.048811,0.2964325,0.2432671,0.4094734c0.1876545,0.1090889,0.4029732,0.1517754,0.648653,0.1280746
						c0.2457123-0.0237198,0.5421486-0.0940666,0.8920937-0.2126503L28.1997585,48.5228233"/></g><g><path fill="#ffd63c" d="M49.5704651,43.1409912l-0.011734,4.139782
								c-0.0048943,1.7272453-1.1409683,3.4516678-3.4087639,4.7699814
								c-4.5636826,2.6529541-11.9807472,2.6557159-16.5789318,0.0001221
								c-2.3115349-1.3349838-3.466011-3.0871429-3.4610538-4.8366241l0.0117321-4.1397781
								c-0.0049572,1.7494774,1.149519,3.5016365,3.4610558,4.8366203c4.5981846,2.6555977,12.0152454,2.652832,16.578928-0.0001221
								C48.4294968,46.592659,49.5655708,44.8682365,49.5704651,43.1409912z"/><path d="M37.8715897,54.4313965c-3.0742188,0-6.1523418-0.6782227-8.5009747-2.0341797
								c-2.3662109-1.3662109-3.6660156-3.2075195-3.6611328-5.184082l0.0117188-4.1396484
								c0.0009766-0.2207031,0.1796875-0.3989258,0.4003906-0.3989258h0.0009766
								c0.2207031,0.0004883,0.3994141,0.1801758,0.3994141,0.4008789l0,0
								c-0.0048828,1.6777344,1.1533203,3.2719727,3.2607422,4.4892578
								c4.4746075,2.5839844,11.73242,2.5844727,16.1777325,0.0004883c2.0654297-1.2011719,3.2060547-2.7724609,3.2099609-4.425293
								c0.0009766-0.2207031,0.1796875-0.3989258,0.4003906-0.3989258h0.0009766
								c0.2207031,0.0004883,0.3994141,0.1801758,0.3994141,0.4008789l-0.0117188,4.1401367
								c-0.0058594,1.9492188-1.2871094,3.7651367-3.6083984,5.1142578
								C44.018074,53.7526855,40.946785,54.4313965,37.8715897,54.4313965z M26.5141697,45.673584l-0.0039063,1.5415039
								c-0.0048828,1.6782227,1.1533203,3.2724609,3.2607422,4.4897461c4.4746075,2.5839844,11.73242,2.5839844,16.1777325,0
								c2.0654297-1.2006836,3.2060547-2.7719727,3.2099609-4.4248047l0.0048828-1.5454102
								c-0.6103516,0.9404297-1.5556641,1.7983398-2.8007813,2.5219727
								c-4.6669922,2.7133789-12.2841797,2.7128906-16.9804668,0.0004883
								C28.1010838,47.517334,27.1323338,46.6379395,26.5141697,45.673584z"/><path fill="#fff" d="M46.1077423,38.304821c4.5981827,2.6555939,4.6176529,6.9531898,0.0539551,9.6061516
								c-4.5636826,2.6529541-11.9807434,2.6557198-16.578928,0.0001221c-4.5935383-2.6529121-4.6177826-6.9532623-0.0541-9.6062164
								C34.0923691,35.6519127,41.5142021,35.6519089,46.1077423,38.304821z"/><path fill="#e9edf4" d="M46.1638794,47.9100914c-4.5694542,2.6525536-11.9800758,2.660408-16.5809364,0
								c-3.2989616-1.9025307-4.2380543-4.6655693-2.8174686-7.0496902c0.615593,3.915638,5.3349476,6.9549599,11.0723896,6.9549599
								c5.7295418,0,10.4488945-3.0314217,11.0802879-6.9391556C50.3543434,43.2603264,49.4310493,46.0075607,46.1638794,47.9100914
								z"/><g><path d="M37.8833084,50.2912598c-3.0751953,0-6.1523418-0.6777344-8.5009747-2.0341797
								c-2.3574219-1.3613281-3.6582031-3.1958008-3.6611328-5.1650391
								c-0.0019531-1.956543,1.2783203-3.7792969,3.6064453-5.1328125
								c4.6669903-2.7133789,12.2841778-2.7128906,16.9804668-0.0004883l0,0
								c2.3583984,1.3623047,3.6591797,3.1962891,3.6621094,5.1645508c0.0029297,1.956543-1.2783203,3.7792969-3.6074219,5.1333008
								C44.0297928,49.6130371,40.9575272,50.2912598,37.8833084,50.2912598z M37.8071365,36.7126465
								c-2.9296875,0-5.8544903,0.6459961-8.0771465,1.9379883c-2.0712891,1.2041016-3.2109375,2.78125-3.2080078,4.4404297
								c0.0019531,1.671875,1.1601563,3.2602539,3.2607422,4.4736328c4.4746075,2.5839844,11.73242,2.5844727,16.1777325,0.0004883
								c2.0722656-1.2045898,3.2119141-2.7817383,3.2099609-4.4404297
								c-0.0029297-1.6713867-1.1611328-3.2597656-3.2626953-4.4736328
								C43.6704178,37.3591309,40.7358475,36.7126465,37.8071365,36.7126465z"/></g><g><path fill="#fff" d="M43.0259743,40.0966682c2.8829689,1.6650047,2.8951759,4.3595085,0.0338326,6.0228615
					c-2.8613358,1.6633492-7.5116806,1.665081-10.3946495,0.0000763c-2.8800526-1.6633186-2.8952522-4.3595505-0.0339165-6.0228996
					C35.4925842,38.4333534,40.1459198,38.4333496,43.0259743,40.0966682z"/><path d="M37.8696365,47.7590332c-1.9550781,0-3.9111328-0.4311523-5.4042969-1.293457
					c-1.5263653-0.8813477-2.3681622-2.0771484-2.3701153-3.3671875c-0.0019531-1.2822266,0.8271484-2.4707031,2.334959-3.347168
					c2.9677734-1.7260742,7.8105469-1.7260742,10.7958984-0.0009766l0,0
					c1.5273438,0.8818359,2.3691406,2.078125,2.3710938,3.3676758c0.0019531,1.2822266-0.828125,2.4707031-2.3359375,3.347168
					C41.7778397,47.3278809,39.8247147,47.7590332,37.8696365,47.7590332z M37.821785,39.2453613
					c-1.8095703,0-3.6162109,0.3989258-4.9892578,1.1972656c-1.2509747,0.7270508-1.9384747,1.6699219-1.9374981,2.6547852
					c0.0019531,0.9926758,0.7011719,1.9428711,1.9707012,2.6757813c2.7636719,1.5966797,7.2470703,1.5961914,9.9931641,0.0004883
					c1.2509766-0.7270508,1.9394531-1.6699219,1.9384766-2.6547852c-0.0019531-0.9921875-0.7021484-1.9428711-1.9716797-2.6762695
					C41.4438553,39.6447754,39.6313553,39.2453613,37.821785,39.2453613z"/></g><g><path d="M37.8535271,44.7445946c0.0424385-0.0245094,0.0930252-0.0426941,0.1476631-0.055336
						c0.4999237-0.1106529,0.9469452-0.271122,1.3437958-0.4814072l-1.4645309-0.8513603
						c-0.3663483,0.123333-0.6942787,0.2165947-0.9824867,0.2790375c-0.2868767,0.0632515-0.5789375,0.0853729-0.8748894,0.0671921
						c-0.2959518-0.018177-0.5696907-0.1011925-0.8198891-0.2466393c-0.220295-0.1280632-0.369545-0.278244-0.4490814-0.4497719
						c-0.076767-0.1715584-0.0689392-0.3557205,0.0235786-0.5509796c0.0925331-0.1968422,0.2777977-0.3905067,0.555809-0.5794334
						l-0.446022-0.2592812c-0.0557556-0.0324097-0.0828323-0.0703506-0.0853386-0.1130257
						c-0.0010948-0.0434952,0.0250168-0.0806351,0.0811195-0.1130371c0.0547676-0.0316277,0.1217003-0.0482254,0.1980934-0.0482178
						c0.0764275-0.0000191,0.1418228,0.0157928,0.1975784,0.0482063l0.4392204,0.2553253
						c0.4364929-0.2316017,0.8781395-0.406292,1.3262787-0.5217056c0.1612282-0.0442657,0.3057556-0.0300369,0.4335823,0.0442696
						c0.0679893,0.0395241,0.1059036,0.0885429,0.1151352,0.1478195c0.0064964,0.0592804-0.0265465,0.1114578-0.1031799,0.1557159
						c-0.0260277,0.0150299-0.0697784,0.0292664-0.1285019,0.0442696c-0.3935165,0.1090851-0.7613258,0.2553215-1.1088982,0.4403
						l1.5162048,0.8813972c0.3800163-0.135952,0.7134857-0.2371407,1.0017433-0.3059158
						c0.288208-0.067173,0.5844231-0.0916977,0.8885422-0.0735016c0.3054771,0.0189781,0.5955887,0.1082878,0.8716393,0.2687607
						c0.224369,0.1304283,0.366745,0.2845764,0.4271431,0.4608574c0.0631294,0.176281,0.0334358,0.3604698-0.0822601,0.5533562
						c-0.1156578,0.1928635-0.3131943,0.3794327-0.5911255,0.558857l0.4528198,0.2632332
						c0.0543976,0.03162,0.0828056,0.0687866,0.0812225,0.1106796c0.0011406,0.0418854-0.0304489,0.080616-0.0893364,0.114624
						c-0.0561028,0.032402-0.1175728,0.0489883-0.188549,0.0505867c-0.0695648,0.0007782-0.1349564-0.0150337-0.1947899-0.0498161
						l-0.4528198-0.2632332c-0.4912071,0.2490196-1.0216141,0.4403114-1.593998,0.5739021
						c-0.0710411,0.0173874-0.1501694,0.0221214-0.231987,0.0126381c-0.0845566-0.0078926-0.1526451-0.0284576-0.2083931-0.0608673
						c-0.0720711-0.041893-0.1099701-0.092495-0.113739-0.1517792
						C37.7411194,44.8410263,37.7768936,44.7888527,37.8535271,44.7445946z M39.7364388,43.9817772
						c0.5600777-0.3723145,0.6191406-0.686924,0.1771965-0.9438362c-0.1645355-0.0956459-0.3690147-0.1272583-0.6120186-0.0924988
						c-0.243042,0.0347824-0.5531921,0.114624-0.9345245,0.2403069L39.7364388,43.9817772 M35.880146,42.1936722
						c-0.2219696,0.1675949-0.3497849,0.331234-0.3820305,0.4901047c-0.0336533,0.1596832,0.0488091,0.2964325,0.2432671,0.4094734
						c0.1876526,0.1090889,0.4029732,0.1517754,0.6486511,0.1280746c0.2457123-0.0237198,0.5421486-0.0940666,0.8920937-0.2126503
						L35.880146,42.1936722"/></g></g></g></svg>