<svg height="512" viewBox="0 0 64 64" width="512" xmlns="http://www.w3.org/2000/svg"><g id="_25-Wallet" data-name="25-Wallet"><path d="m63 32v9a2.006 2.006 0 0 1 -2 2h-14a2.006 2.006 0 0 1 -2-2v-6a2.006 2.006 0 0 1 2-2h12v-3h2a2.006 2.006 0 0 1 2 2zm-11 6a2 2 0 1 0 -2 2 2.006 2.006 0 0 0 2-2z" fill="#e03e3e"/><path d="m54.64 1 8.36 23.78-4 1.43v-6.21a2.006 2.006 0 0 0 -2-2h-1.65l-2.82-8.02a3.852 3.852 0 0 1 -4.93-2.36l-29.12 10.34v.04h-8.48a4.524 4.524 0 0 1 -.74-.06l-.26-.72 34.04-12.1z" fill="#36ce94"/><path d="m5.1 13.97a4.987 4.987 0 0 0 4.16 3.97 4.524 4.524 0 0 0 .74.06h47a2.006 2.006 0 0 1 2 2v13h-12a2.006 2.006 0 0 0 -2 2v6a2.006 2.006 0 0 0 2 2h12v11c0 1.21-1.79 3-4 3h-14v-16a2.006 2.006 0 0 0 -2-2h-32a2.006 2.006 0 0 0 -2 2v16a4 4 0 0 1 -4-4v-39a6 6 0 0 1 6-6h3.21a5.147 5.147 0 0 0 -5.19 4.51 4.717 4.717 0 0 0 .08 1.46z" fill="#febd55"/><path d="m52.53 9.98 2.82 8.02h-36.87v-.04l29.12-10.34a3.852 3.852 0 0 0 4.93 2.36z" fill="#2fb380"/><circle cx="50" cy="38" fill="#2b2b37" r="2"/><path d="m21.62 8 19.38-7 2 4 .04.12-34.04 12.1.26.72a4.987 4.987 0 0 1 -4.16-3.97z" fill="#2fb380"/><path d="m21.62 8-16.52 5.97a4.717 4.717 0 0 1 -.08-1.46 5.147 5.147 0 0 1 5.19-4.51z" fill="#bd6f08"/><path d="m41 57v4a2.006 2.006 0 0 1 -2 2h-32a2.006 2.006 0 0 1 -2-2v-13h36z" fill="#ff6161"/><path d="m41 45v3h-1-34-1v-3h1 34z" fill="#edf4fa"/><path d="m41 41v4h-36v-4a2.006 2.006 0 0 1 2-2h32a2.006 2.006 0 0 1 2 2z" fill="#cb3541"/><path d="m39 60h-11a17.992 17.992 0 0 1 -16.954-12h-6.046v13a2.006 2.006 0 0 0 2 2h32a2.006 2.006 0 0 0 2-2v-3a2 2 0 0 1 -2 2z" fill="#e03e3e"/><path d="m11.046 48a17.872 17.872 0 0 1 -.776-3h-5.27v3z" fill="#c1cfe8"/><path d="m10.27 45a18.09 18.09 0 0 1 -.27-3v-3h-3a2.006 2.006 0 0 0 -2 2v4z" fill="#a81e29"/><path d="m43 5-.812-1.624-30.37 10.967a2 2 0 0 1 -2.536-1.138l-.261-.652-3.921 1.417a4.987 4.987 0 0 0 4.16 3.97l-.26-.72 34.04-12.1z" fill="#2aa173"/><path d="m26.816 15h-11.571l-6.245 2.22.26.72a4.524 4.524 0 0 0 .74.06h8.48v-.04z" fill="#2fb380"/><path d="m63 24.78-3.438-9.78h-5.262l1.055 3h1.645a2.006 2.006 0 0 1 2 2v6.21z" fill="#2fb380"/><path d="m26.816 15-8.336 2.96v.04h36.87l-1.055-3z" fill="#2aa173"/><path d="m62 41h-10a2.98 2.98 0 0 1 -2.242-1.025 1.988 1.988 0 0 1 0-3.95 2.98 2.98 0 0 1 2.242-1.025h7a2 2 0 0 0 2-2v-3h-2v3h-12a2.006 2.006 0 0 0 -2 2v6a2.006 2.006 0 0 0 2 2h14a2.006 2.006 0 0 0 2-2v-1a1 1 0 0 1 -1 1z" fill="#cb3541"/><g fill="#fc9e20"><path d="m48 46h11v-3h-12a1.975 1.975 0 0 1 -1-.279v1.279a2 2 0 0 0 2 2z"/><path d="m5 45v-4a2.006 2.006 0 0 1 2-2h2v-21.12a4.976 4.976 0 0 1 -3.9-3.91 4.717 4.717 0 0 1 -.08-1.46 5.147 5.147 0 0 1 5.19-4.51h-3.21a6 6 0 0 0 -6 6v39a4 4 0 0 0 4 4z"/><path d="m56 53h-8a4 4 0 0 1 -4-4v-5a2 2 0 0 0 -2-2h-1v15h14c2.21 0 4-1.79 4-3v-4a3 3 0 0 1 -3 3z"/></g><path d="m44 56h2v2h-2z"/><path d="m61 29h-1v-2.088l3.335-1.185a1 1 0 0 0 .608-1.275l-8.364-23.784a1 1 0 0 0 -1.279-.61l-10.744 3.817-1.656-3.322a1 1 0 0 0 -1.24-.493l-34.634 12.506a4.151 4.151 0 0 1 4.189-3.566h3.785v-2h-7a7.008 7.008 0 0 0 -7 7v39a5.009 5.009 0 0 0 4 4.9v3.1a3 3 0 0 0 3 3h32a3 3 0 0 0 3-3v-20a3 3 0 0 0 -3-3h-32a3 3 0 0 0 -3 3v14.816a3 3 0 0 1 -2-2.816v-39a4.993 4.993 0 0 1 3.324-4.69 5.762 5.762 0 0 0 -1.3 3.1 6 6 0 0 0 5.976 6.59h47a1 1 0 0 1 1 1v12h-11a3 3 0 0 0 -3 3v6a3 3 0 0 0 3 3h11v10c0 .6-1.267 2-3 2h-7v2h7c2.693 0 5-2.2 5-4v-10h1a3 3 0 0 0 3-3v-9a3 3 0 0 0 -3-3zm-55 12a1 1 0 0 1 1-1h32a1 1 0 0 1 1 1v3h-34zm0 5h34v1h-34zm0 3h34v12a1 1 0 0 1 -1 1h-32a1 1 0 0 1 -1-1zm18.178-32 22.909-8.14a4.866 4.866 0 0 0 4.8 2.3l2.05 5.84zm32.822 0h-.943l-2.585-7.351a1 1 0 0 0 -1.279-.61 2.823 2.823 0 0 1 -2.177-.113 2.856 2.856 0 0 1 -1.472-1.642 1 1 0 0 0 -.512-.57 1.007 1.007 0 0 0 -.766-.04l-29.066 10.326h-5.61l2.976-1.058-.67-1.884-6.231 2.215a.97.97 0 0 0 -.416.308 3.769 3.769 0 0 1 -1.905-2l34.156-12.339 1.157 2.308-21.129 7.508.67 1.884 32.827-11.664 7.7 21.9-1.725.611v-4.789a3 3 0 0 0 -3-3zm5 24a1 1 0 0 1 -1 1h-14a1 1 0 0 1 -1-1v-6a1 1 0 0 1 1-1h12a1 1 0 0 0 1-1v-2h1a1 1 0 0 1 1 1z"/><path d="m50 35a3 3 0 1 0 3 3 3 3 0 0 0 -3-3zm0 4a1 1 0 1 1 1-1 1 1 0 0 1 -1 1z"/><path d="m16.939 13.017h2.122v2h-2.122z" transform="matrix(.942 -.335 .335 .942 -3.655 6.838)"/></g></svg>